<?xml version="1.0" encoding="UTF-8" standalone="no"?>
<svg width="21px" height="27px" viewBox="0 0 21 27" version="1.1" xmlns="http://www.w3.org/2000/svg" xmlns:xlink="http://www.w3.org/1999/xlink" xmlns:sketch="http://www.bohemiancoding.com/sketch/ns">
    <!-- Generator: Sketch 3.3.2 (12043) - http://www.bohemiancoding.com/sketch -->
    <title>apple</title>
    <desc>Created with Sketch.</desc>
    <defs></defs>
    <g id="Visual-Regression" stroke="none" stroke-width="1" fill="none" fill-rule="evenodd" sketch:type="MSPage">
        <g id="Sign-In-Options" sketch:type="MSArtboardGroup" transform="translate(-365.000000, -479.000000)" fill="#878787">
            <g id="Group" sketch:type="MSLayerGroup" transform="translate(330.000000, 95.000000)">
                <g id="signup_box_selection" transform="translate(14.000000, 93.000000)" sketch:type="MSShapeGroup">
                    <g id="Rectangle-2-+-Path-1-+-PayPal-+-Rectangle-2-+-Path-1-+-PayPal-Copy-2-+-Rectangle-2-+-Path-1-+-PayPal-Copy" transform="translate(0.000000, 60.000000)">
                        <g id="Rectangle-2-+-Path-1-+-PayPal-Copy-3" transform="translate(0.000000, 212.469880)">
                            <path d="M36.6317688,19 C35.3346188,19.0520684 33.7645389,19.8642317 32.8331689,20.9548621 C31.999372,21.9187549 31.268135,23.4634564 31.4663395,24.9442249 C32.9129796,25.0563775 34.3902725,24.2080353 35.2908685,23.1190081 C36.1913162,22.0283777 36.7991989,20.5115427 36.6317688,19 L36.6317688,19 Z M36.1381914,25.2155537 C34.3059657,25.2402667 32.608069,26.4175484 31.6700674,26.4175484 C30.6525744,26.4175484 29.0793292,25.2654631 27.4149319,25.2979707 C25.2239082,25.3304783 23.2071313,26.5705446 22.0791118,28.5307628 C19.8051935,32.4755802 21.4988607,38.3219602 23.7126394,41.5239753 C24.7967735,43.089224 26.0875148,44.8523419 27.7844203,44.7873264 C29.4195609,44.7223109 30.0367012,43.731645 32.0099226,43.731645 C33.983144,43.731645 34.5391228,44.7876493 36.2669104,44.7567672 C38.0239557,44.7226338 39.1395212,43.1570708 40.2155285,41.5869454 C41.4573251,39.7697617 41.9707428,38.0115636 42,37.9189165 C41.9609906,37.9026628 38.5733096,36.6041866 38.537551,32.7016294 C38.5082944,29.4378498 41.2030156,27.8709576 41.3249196,27.7945641 C39.8084325,25.5759091 37.448717,25.2716852 36.6067659,25.2359263 C36.4499414,25.2200534 36.2934649,25.2134591 36.1381914,25.2155537 L36.1381914,25.2155537 Z" id="apple"></path>
                        </g>
                    </g>
                </g>
            </g>
        </g>
    </g>
</svg>