<?xml version="1.0" encoding="UTF-8" standalone="no"?>
<svg width="16px" height="25px" viewBox="0 0 16 25" version="1.1" xmlns="http://www.w3.org/2000/svg" xmlns:xlink="http://www.w3.org/1999/xlink" xmlns:sketch="http://www.bohemiancoding.com/sketch/ns">
    <!-- Generator: Sketch 3.3.2 (12043) - http://www.bohemiancoding.com/sketch -->
    <title>google-icon</title>
    <desc>Created with Sketch.</desc>
    <defs></defs>
    <g id="Visual-Regression" stroke="none" stroke-width="1" fill="none" fill-rule="evenodd" sketch:type="MSPage">
        <g id="Email-+-Google-Copy-3" sketch:type="MSArtboardGroup" transform="translate(-367.000000, -339.000000)" fill="#AFAFAF">
            <g id="Group" sketch:type="MSLayerGroup" transform="translate(330.000000, 95.000000)">
                <g id="signup_box_selection" transform="translate(14.000000, 93.000000)" sketch:type="MSShapeGroup">
                    <g id="Rectangle-2-+-Path-1-+-PayPal-+-Rectangle-2-+-Path-1-+-PayPal-Copy-2-+-Rectangle-2-+-Path-1-+-PayPal-Copy" transform="translate(0.000000, 60.000000)">
                        <g id="Rectangle-2-+-Path-1-+-PayPal-Copy" transform="translate(0.000000, 71.734940)">
                            <path d="M34.3938559,21.1387638 C34.5915954,21.2618846 34.8133786,21.4417985 35.0604493,21.6776764 C35.2971563,21.9243325 35.5288887,22.2273672 35.7560611,22.5867805 C35.9736989,22.9254663 36.1660492,23.3259198 36.3339412,23.788141 C36.4719858,24.2499476 36.5412153,24.7892748 36.5412153,25.4057079 C36.5221461,26.5353516 36.2738317,27.438652 35.7962723,28.1168528 C35.561638,28.4455894 35.3137382,28.7482096 35.0517438,29.0255423 C34.7611455,29.302875 34.4523072,29.5855969 34.1243996,29.8728787 C33.9370238,30.0681309 33.7637427,30.2886705 33.6045562,30.5353267 C33.417595,30.791932 33.3234926,31.0895775 33.3234926,31.4286779 C33.3234926,31.7574146 33.4196677,32.0293582 33.6116035,32.2449232 C33.7749355,32.4505391 33.9337074,32.6300385 34.0875048,32.7842504 L35.1537226,33.6622634 C35.8169997,34.2065651 36.3977816,34.8072454 36.8977267,35.4643042 C37.3682389,36.1317267 37.6136514,37.0047651 37.6327206,38.0830048 C37.6327206,39.613102 36.9603235,40.9686745 35.6151147,42.1501367 C34.2197457,43.3718101 32.2071144,44.003167 29.5763918,44.0446218 C27.3743121,44.0238944 25.7302141,43.5521386 24.6445125,42.6301835 C23.5484472,41.7687524 23,40.7386003 23,39.539727 C23,38.9552141 23.1786703,38.3043735 23.5347671,37.5867907 C23.8809148,36.8692078 24.5072971,36.2386801 25.4139139,35.695622 C26.4324587,35.1115237 27.5019929,34.722263 28.6225166,34.5274254 C29.7322619,34.3632643 30.6538025,34.2712346 31.3875527,34.2505072 C31.1607949,33.9507889 30.9589099,33.6311723 30.7814833,33.2904137 C30.5746238,32.9600188 30.4709868,32.5624671 30.4709868,32.0973441 C30.4709868,31.8187677 30.5103688,31.5862062 30.589133,31.4004887 C30.6583625,31.2039928 30.7222029,31.0236644 30.7814833,30.8586742 C30.4241428,30.8997145 30.0875297,30.9200274 29.7712295,30.9200274 C28.0976986,30.8997145 26.8221339,30.3711656 25.9449501,29.3339661 C25.0263114,28.3684835 24.5674066,27.2446435 24.5674066,25.9607878 C24.5674066,24.4103778 25.2178326,23.0038159 26.5190992,21.7406877 C27.4128651,21.0015483 28.3414529,20.5185997 29.3048628,20.292671 C30.2587381,20.0978334 31.1525039,20 31.9874039,20 L38.2740266,20 L36.3326976,21.1387638 L34.3938559,21.1387638 L34.3938559,21.1387638 Z M35.608482,39.3179438 C35.608482,38.5166222 35.3481457,37.817694 34.8274733,37.2224029 C34.2769533,36.6573737 33.4163514,35.9642492 32.2452528,35.1422003 C32.0446115,35.1218874 31.8095627,35.1115237 31.5392773,35.1115237 C31.3792617,35.0907963 30.9684445,35.1115237 30.3080693,35.1732914 C29.6572287,35.2653211 28.9914644,35.4145584 28.3111909,35.6201743 C28.1507608,35.6815274 27.9256611,35.7739716 27.6354774,35.897507 C27.3448792,36.0309915 27.0497209,36.2208545 26.749588,36.4675107 C26.4589898,36.724116 26.2139918,37.042489 26.013765,37.4226296 C25.7836908,37.8230831 25.6684464,38.3056172 25.6684464,38.8706463 C25.6684464,39.9799772 26.1688061,40.8940558 27.1699398,41.6137114 C28.1209133,42.3321234 29.4221799,42.7023149 31.0737398,42.7226277 C32.5557494,42.7023149 33.6866367,42.3735782 34.4672309,41.7368322 C35.2279268,41.1100354 35.608482,40.3037393 35.608482,39.3179438 L35.608482,39.3179438 Z M31.2250498,30.060669 C32.0529025,30.0295779 32.7422961,29.7311033 33.2940596,29.1648305 C33.559785,28.7639624 33.7309934,28.3523161 33.8068557,27.9303061 C33.852456,27.5087106 33.8756707,27.1534429 33.8756707,26.8653319 C33.8756707,25.6204438 33.5585414,24.3647775 32.9242827,23.099162 C32.6270517,22.4918489 32.2361328,21.9981221 31.7502823,21.6171523 C31.2548973,21.2573245 30.6853081,21.0666324 30.0415149,21.045905 C29.1896184,21.0666324 28.4807411,21.4115364 27.9161265,22.0806172 C27.4398107,22.7803744 27.2118092,23.5622122 27.2325366,24.4265451 C27.2325366,25.5686253 27.5654188,26.7575494 28.2307686,27.9920738 C28.5528725,28.5682957 28.9690788,29.0574625 29.4781439,29.4583306 C29.9876236,29.8600277 30.5696492,30.060669 31.2250498,30.060669 L31.2250498,30.060669 Z" id="google-icon"></path>
                        </g>
                    </g>
                </g>
            </g>
        </g>
    </g>
</svg>