<?xml version="1.0" encoding="UTF-8" standalone="no"?>
<svg width="18px" height="31px" viewBox="0 0 18 31" version="1.1" xmlns="http://www.w3.org/2000/svg" xmlns:xlink="http://www.w3.org/1999/xlink" xmlns:sketch="http://www.bohemiancoding.com/sketch/ns">
    <!-- Generator: Sketch 3.3.2 (12043) - http://www.bohemiancoding.com/sketch -->
    <title>mobile-icon</title>
    <desc>Created with Sketch.</desc>
    <defs></defs>
    <g id="Visual-Regression" stroke="none" stroke-width="1" fill="none" fill-rule="evenodd" sketch:type="MSPage">
        <g id="Email-+-Google-Copy-3" sketch:type="MSArtboardGroup" transform="translate(-366.000000, -408.000000)" fill="#AFAFAF">
            <g id="Group" sketch:type="MSLayerGroup" transform="translate(330.000000, 95.000000)">
                <g id="signup_box_selection" transform="translate(14.000000, 93.000000)" sketch:type="MSShapeGroup">
                    <g id="Rectangle-2-+-Path-1-+-PayPal-+-Rectangle-2-+-Path-1-+-PayPal-Copy-2-+-Rectangle-2-+-Path-1-+-PayPal-Copy" transform="translate(0.000000, 60.000000)">
                        <g id="Rectangle-2-+-Path-1-+-PayPal-Copy-2" transform="translate(0.000000, 142.469880)">
                            <path d="M37,18 L25,18 C23.346,18 22,19.3455 22,21 L22,45 C22,46.654 23.346,48 25,48 L37,48 C38.6545,48 40,46.654 40,45 L40,21 C40,19.3455 38.6545,18 37,18 L37,18 Z M27.5,21 L34.5,21 C34.7765,21 35,21.224 35,21.5 C35,21.776 34.7765,22 34.5,22 L27.5,22 C27.2235,22 27,21.776 27,21.5 C27,21.224 27.2235,21 27.5,21 L27.5,21 Z M31.5,47 C30.673,47 30,46.327 30,45.5 C30,44.673 30.673,44 31.5,44 C32.327,44 33,44.673 33,45.5 C33,46.327 32.327,47 31.5,47 L31.5,47 Z M23,24 L39,24 L39,42 L23,42 L23,24 Z" id="mobile-icon"></path>
                        </g>
                    </g>
                </g>
            </g>
        </g>
    </g>
</svg>